<svg xmlns="http://www.w3.org/2000/svg" aria-hidden="true" style="position:absolute;width:0;height:0;overflow:hidden"><defs><symbol id="icon-hero1" viewBox="0 0 32 32"><path fill="#fff" d="M31.612 17.596c-.179-.64-.347-1.244-.347-1.796s.168-1.156.347-1.796c.285-1.018.578-2.071.227-3.095-.364-1.065-1.273-1.761-2.151-2.433-.527-.403-1.024-.784-1.347-1.203-.328-.427-.561-.998-.805-1.601-.404-.992-.822-2.018-1.756-2.663-.92-.635-2.067-.696-3.175-.754-.691-.036-1.345-.071-1.893-.24-.512-.157-1.042-.484-1.603-.829C18.207.63 17.184-.001 16-.001s-2.206.631-3.109 1.188c-.561.346-1.089.673-1.602.829-.548.168-1.202.203-1.893.24-1.109.059-2.255.12-3.175.754-.935.644-1.352 1.67-1.756 2.662-.246.604-.479 1.175-.807 1.602-.323.42-.82.801-1.347 1.205C1.433 9.152.526 9.846.162 10.91c-.351 1.024-.058 2.077.226 3.096.179.64.347 1.243.347 1.795s-.168 1.156-.347 1.796c-.284 1.018-.577 2.071-.226 3.096.364 1.063 1.272 1.759 2.15 2.431.527.403 1.024.784 1.346 1.203.329.427.561.997.807 1.602.404.992.822 2.018 1.758 2.664.919.633 2.066.694 3.174.752.691.036 1.345.071 1.893.24.512.157 1.041.484 1.601.829.903.556 1.926 1.187 3.11 1.187s2.208-.631 3.111-1.188c.56-.345 1.089-.671 1.601-.829.547-.168 1.201-.203 1.893-.24 1.109-.058 2.255-.119 3.174-.752.937-.646 1.354-1.674 1.759-2.666.246-.603.477-1.173.804-1.599.323-.419.82-.8 1.347-1.203.879-.673 1.786-1.368 2.151-2.432.351-1.025.057-2.077-.227-3.096zm-1.091 2.656c-.23.672-.938 1.213-1.686 1.786-.574.44-1.168.894-1.602 1.458-.44.574-.719 1.257-.988 1.919-.343.844-.667 1.64-1.263 2.051-.594.409-1.496.457-2.452.507-.746.039-1.519.08-2.233.3-.682.211-1.314.599-1.924.976-.817.504-1.589.98-2.374.98s-1.556-.475-2.373-.98c-.609-.376-1.24-.765-1.923-.976-.714-.219-1.486-.26-2.233-.3-.956-.05-1.859-.098-2.452-.507-.595-.411-.92-1.207-1.263-2.05-.269-.662-.548-1.345-.989-1.919-.433-.563-1.027-1.018-1.602-1.458-.748-.573-1.454-1.114-1.685-1.785-.215-.626.011-1.435.25-2.291.195-.7.396-1.423.396-2.161s-.202-1.461-.397-2.161c-.239-.856-.465-1.665-.25-2.29.23-.672.936-1.213 1.684-1.785.575-.44 1.169-.896 1.602-1.46.442-.574.721-1.259.991-1.92.342-.843.666-1.638 1.261-2.048S8.514 3.68 9.47 3.63c.746-.04 1.518-.08 2.231-.3.684-.21 1.315-.6 1.926-.976.816-.502 1.587-.978 2.371-.978s1.556.475 2.373.979c.611.377 1.242.766 1.925.976.713.219 1.485.26 2.232.3.956.05 1.859.099 2.453.508.595.411.92 1.206 1.262 2.048.27.662.547 1.346.99 1.92.433.563 1.027 1.018 1.601 1.458.748.574 1.456 1.115 1.686 1.788.215.624-.012 1.433-.25 2.289-.195.7-.397 1.423-.397 2.161s.201 1.461.397 2.161c.239.856.465 1.665.25 2.29z" style="fill:var(--color1, #fff)"/><path fill="#fff" d="M15.999 5.495c-5.753 0-10.434 4.623-10.434 10.305s4.681 10.305 10.434 10.305S26.433 21.482 26.433 15.8c0-5.682-4.681-10.305-10.434-10.305zm0 19.236c-4.986 0-9.043-4.006-9.043-8.931s4.057-8.931 9.043-8.931a9.065 9.065 0 0 1 6.539 2.779l-6.629 9.213-3.591-3.547c-.272-.269-.712-.269-.984 0s-.272.703 0 .971l4.174 4.122a.697.697 0 0 0 1.058-.089l6.884-9.568a8.795 8.795 0 0 1 1.591 5.049c0 4.924-4.057 8.931-9.043 8.931z" style="fill:var(--color1, #fff)"/></symbol><symbol id="icon-hero2" viewBox="0 0 49 32"><path fill="#fff" d="m45.707 13.566-1.243-5.24a.783.783 0 0 0 .595-.774v-.845c0-1.834-1.416-3.327-3.157-3.327H36.24V1.637C36.24.734 35.543 0 34.687 0H5.827C4.97 0 4.274.734 4.274 1.637V16c0 .437.336.792.752.792s.752-.355.752-.792V1.637c0-.029.022-.053.05-.053h28.86c.028 0 .05.024.05.053V16c0 .437.336.792.752.792s.752-.355.752-.792v-.898H45.112c1.091.001 2.017.755 2.335 1.795H45.11c-.415 0-.752.355-.752.792v1.69c0 1.369 1.056 2.482 2.355 2.482h.852v3.485H45.6c-.646-1.965-2.418-3.38-4.498-3.38s-3.853 1.415-4.498 3.38h-.362v-5.967c0-.437-.336-.792-.752-.792s-.752.355-.752.792v5.967H19.145c-.646-1.964-2.418-3.38-4.498-3.38s-3.853 1.415-4.498 3.38h-4.32c-.028 0-.05-.024-.05-.053V23.55h3.257c.415 0 .752-.355.752-.792s-.336-.792-.752-.792H1.821c-.415 0-.752.355-.752.792s.336.792.752.792h2.455v1.743c0 .903.697 1.637 1.553 1.637h4.06l-.001.053c0 2.766 2.135 5.016 4.76 5.016s4.76-2.25 4.76-5.016l-.001-.053h16.938l-.001.053c0 2.766 2.135 5.016 4.76 5.016s4.76-2.25 4.76-5.016l-.001-.053h2.457c.415 0 .752-.355.752-.792v-8.449c0-2.086-1.46-3.819-3.36-4.124zM36.24 4.964h5.662c.912 0 1.654.782 1.654 1.743v.053h-7.315V4.965zm0 8.554V8.343h6.678l1.228 5.175H36.24zM14.645 30.416c-1.796 0-3.257-1.54-3.257-3.432s1.461-3.432 3.257-3.432 3.257 1.54 3.257 3.432-1.461 3.432-3.257 3.432zm26.455 0c-1.796 0-3.257-1.54-3.257-3.432s1.461-3.432 3.257-3.432 3.257 1.54 3.257 3.432-1.461 3.432-3.257 3.432zm6.464-10.139h-.852c-.47 0-.852-.403-.852-.898v-.898h1.704v1.795z" style="fill:var(--color1, #fff)"/><path fill="#fff" d="M14.667 25.6c-.735 0-1.333.598-1.333 1.333s.598 1.333 1.333 1.333S16 27.668 16 26.933s-.598-1.333-1.333-1.333zM41.122 25.6c-.735 0-1.333.598-1.333 1.333s.598 1.333 1.333 1.333 1.333-.598 1.333-1.333-.598-1.333-1.333-1.333zM18.375 19.733H7.152c-.415 0-.752.362-.752.809s.336.809.752.809h11.223c.415 0 .752-.362.752-.809s-.336-.809-.752-.809zM10.372 17.6H.752c-.415 0-.752.362-.752.809s.336.809.752.809h9.62c.415 0 .752-.362.752-.809s-.337-.809-.752-.809zM27.201 7.999a.714.714 0 0 0-1.063 0l-6.684 7.191-3.477-3.741c-.293-.316-.769-.316-1.063 0s-.294.828 0 1.144l4.008 4.313c.147.158.339.237.531.237s.385-.079.531-.237l7.215-7.763a.852.852 0 0 0 0-1.144z" style="fill:var(--color1, #fff)"/></symbol><symbol id="icon-hero3" viewBox="0 0 30 32"><path fill="#fff" d="M9.155 5.564c-.256 0-.464.224-.464.499 0 .606-.458 1.099-1.021 1.099s-1.021-.493-1.021-1.099.458-1.099 1.021-1.099c.256 0 .464-.224.464-.499s-.208-.499-.464-.499c-1.075 0-1.95.941-1.95 2.098s.875 2.098 1.95 2.098 1.95-.941 1.95-2.098c0-.276-.208-.499-.464-.499zM9.155 11.424c-.256 0-.464.224-.464.499 0 .606-.458 1.099-1.021 1.099s-1.021-.493-1.021-1.099.458-1.099 1.021-1.099c.256 0 .464-.224.464-.499s-.208-.499-.464-.499c-1.075 0-1.95.941-1.95 2.098s.875 2.098 1.95 2.098 1.95-.941 1.95-2.098c0-.276-.208-.499-.464-.499zM16.692 12.844h-3.466c-.256 0-.464.224-.464.499s.208.499.464.499h3.466c.256 0 .464-.224.464-.499s-.208-.499-.464-.499zM16.692 10.713h-3.466c-.256 0-.464.224-.464.499s.208.499.464.499h3.466c.256 0 .464-.224.464-.499s-.208-.499-.464-.499zM15.702 18.704h-2.476c-.256 0-.464.224-.464.499s.208.499.464.499h2.476c.256 0 .464-.224.464-.499s-.208-.499-.464-.499zM16.692 16.573h-3.466c-.256 0-.464.224-.464.499s.208.499.464.499h3.466c.256 0 .464-.224.464-.499s-.208-.499-.464-.499zM21.148 6.984h-7.922c-.256 0-.464.224-.464.499s.208.499.464.499h7.922c.256 0 .464-.224.464-.499s-.208-.499-.464-.499zM19.168 4.854h-5.941c-.256 0-.464.224-.464.499s.208.499.464.499h5.941c.256 0 .464-.224.464-.499s-.208-.499-.464-.499zM9.155 17.284c-.256 0-.464.224-.464.499 0 .606-.458 1.099-1.021 1.099s-1.021-.493-1.021-1.099.458-1.099 1.021-1.099c.256 0 .464-.224.464-.499s-.208-.499-.464-.499c-1.075 0-1.95.941-1.95 2.098s.875 2.098 1.95 2.098 1.95-.941 1.95-2.098c0-.276-.208-.499-.464-.499z" style="fill:var(--color1, #fff)"/><path fill="#fff" d="M23.995 0H1.909C.857 0 .001.702.001 1.565v22.374c0 .863.856 1.565 1.908 1.565h11.043c.336 0 .609-.224.609-.499s-.273-.499-.609-.499H1.909c-.381 0-.69-.254-.69-.566V1.566c0-.312.31-.566.69-.566h22.086c.381 0 .69.254.69.566V18.08c0 .276.273.499.609.499s.609-.224.609-.499V1.566c0-.863-.856-1.565-1.908-1.565z" style="fill:var(--color1, #fff)"/><path fill="#fff" d="M28.831 20.252a1.627 1.627 0 0 0-1.204.364c-.272-.491-.735-.839-1.272-.897a1.626 1.626 0 0 0-1.204.364c-.272-.491-.735-.839-1.272-.897a1.62 1.62 0 0 0-.948.191v-6.36c0-.516-.204-1.011-.56-1.358s-.835-.515-1.316-.464c-.857.092-1.528.926-1.528 1.898v6.376l-1.364 1.468c-.725.78-1.018 1.887-.783 2.961l1.036 4.737c.42 1.919 1.993 3.26 3.826 3.26h4.187c2.167 0 3.93-1.897 3.93-4.228V22.15c0-.972-.671-1.806-1.528-1.898zm.6 7.415c0 1.781-1.347 3.23-3.002 3.23h-4.187c-1.4 0-2.601-1.024-2.922-2.49l-1.036-4.737a2.26 2.26 0 0 1 .536-2.026l.708-.762v1.724c0 .276.208.499.464.499s.464-.224.464-.499v-9.513c0-.465.304-.862.692-.904a.737.737 0 0 1 .6.21.865.865 0 0 1 .255.617v8.79c0 .276.208.499.464.499s.464-.224.464-.499v-.799c0-.235.093-.46.255-.617a.73.73 0 0 1 .6-.21c.388.042.692.439.692.904v1.256c0 .276.208.499.464.499s.464-.224.464-.499v-.799c0-.235.093-.46.255-.617a.73.73 0 0 1 .6-.21c.388.042.692.439.692.904v1.256c0 .276.208.499.464.499s.464-.224.464-.499v-.799c0-.235.093-.46.255-.617a.73.73 0 0 1 .6-.21c.388.042.692.439.692.904v5.518z" style="fill:var(--color1, #fff)"/></symbol><symbol id="icon-hero4" viewBox="0 0 33 32"><path fill="#fff" d="M32.091 17.792c-.181-.647-.352-1.258-.352-1.816s.171-1.169.352-1.816c.289-1.029.587-2.094.23-3.129-.37-1.077-1.292-1.78-2.184-2.46-.535-.408-1.039-.793-1.367-1.216-.333-.432-.569-1.009-.818-1.619-.41-1.003-.834-2.041-1.783-2.692-.934-.642-2.099-.704-3.224-.763-.702-.037-1.366-.072-1.921-.242-.52-.159-1.058-.489-1.627-.838-.916-.563-1.955-1.2-3.156-1.2s-2.24.638-3.156 1.201c-.569.349-1.106.68-1.626.838-.556.17-1.22.206-1.922.242-1.126.06-2.289.121-3.223.763-.949.652-1.373 1.689-1.783 2.692-.25.611-.486 1.188-.819 1.62-.328.425-.833.81-1.367 1.218-.891.68-1.812 1.382-2.182 2.458-.357 1.036-.059 2.1.23 3.13.181.647.352 1.257.352 1.815s-.171 1.169-.352 1.816c-.288 1.029-.586 2.094-.23 3.131.37 1.075 1.292 1.779 2.183 2.458.535.407 1.039.793 1.366 1.216.334.432.57 1.009.819 1.62.41 1.003.835 2.041 1.784 2.694.933.64 2.097.702 3.222.761.702.037 1.366.072 1.921.242.52.159 1.057.489 1.626.838.917.562 1.955 1.2 3.157 1.2s2.241-.638 3.159-1.201c.568-.349 1.105-.679 1.625-.838.556-.17 1.22-.206 1.921-.242 1.126-.059 2.289-.12 3.222-.761.951-.653 1.375-1.692 1.785-2.696.249-.61.484-1.186.816-1.617.328-.424.833-.809 1.367-1.216.892-.68 1.813-1.383 2.184-2.459.357-1.036.058-2.101-.231-3.131zm-1.107 2.685c-.234.679-.952 1.227-1.712 1.806-.583.445-1.186.904-1.626 1.474-.447.581-.729 1.271-1.003 1.94-.348.853-.677 1.658-1.282 2.073-.603.414-1.519.462-2.489.513-.758.04-1.542.081-2.267.303-.693.213-1.334.606-1.953.986-.83.51-1.613.991-2.41.991s-1.58-.481-2.409-.991c-.619-.38-1.259-.773-1.953-.986-.724-.222-1.509-.263-2.267-.303-.97-.051-1.887-.099-2.489-.513-.604-.415-.934-1.22-1.282-2.073-.273-.669-.556-1.36-1.004-1.941-.44-.57-1.043-1.029-1.626-1.475-.759-.579-1.477-1.126-1.71-1.805-.218-.633.011-1.451.254-2.317.198-.708.402-1.439.402-2.185s-.205-1.477-.403-2.185c-.243-.866-.472-1.683-.254-2.316.234-.679.95-1.226 1.71-1.805.583-.445 1.187-.906 1.626-1.476.449-.581.732-1.273 1.006-1.941.347-.852.676-1.657 1.28-2.071s1.52-.463 2.491-.513c.757-.04 1.542-.081 2.265-.304.694-.213 1.335-.606 1.955-.987.828-.508 1.611-.988 2.407-.988s1.58.481 2.409.99c.62.381 1.26.774 1.955.987.724.222 1.508.263 2.265.303.971.051 1.887.1 2.491.514.604.415.934 1.22 1.281 2.071.274.67.556 1.361 1.005 1.941.44.57 1.043 1.029 1.626 1.474.76.58 1.478 1.127 1.712 1.808.218.631-.012 1.449-.254 2.314-.198.708-.403 1.439-.403 2.185s.204 1.477.403 2.185c.243.866.472 1.683.254 2.316z" style="fill:var(--color1, #fff)"/><path fill="#fff" d="M16.243 4.852c-6.246 0-11.31 4.981-11.31 11.125s5.063 11.125 11.31 11.125c6.246 0 11.31-4.981 11.31-11.125-.007-6.142-5.066-11.118-11.31-11.125zm0 21.191c-5.652 0-10.233-4.506-10.233-10.066S10.591 5.911 16.243 5.911c5.651 0 10.233 4.507 10.233 10.066-.006 5.557-4.584 10.06-10.233 10.066z" style="fill:var(--color1, #fff)"/><path fill="#fff" d="m11.015 20.371 9.694-9.536.762.749-9.694 9.536-.762-.749zM19.474 17.037c-1.19 0-2.154.949-2.154 2.119s.964 2.119 2.154 2.119 2.154-.949 2.154-2.119-.965-2.119-2.154-2.119zm0 3.179c-.595 0-1.077-.474-1.077-1.06s.482-1.06 1.077-1.06 1.077.474 1.077 1.06c0 .585-.482 1.06-1.077 1.06zM13.012 14.918c1.19 0 2.154-.949 2.154-2.119s-.965-2.119-2.154-2.119c-1.19 0-2.154.949-2.154 2.119s.964 2.119 2.154 2.119zm0-3.179c.595 0 1.077.474 1.077 1.06s-.482 1.06-1.077 1.06-1.077-.474-1.077-1.06c0-.585.482-1.06 1.077-1.06z" style="fill:var(--color1, #fff)"/></symbol></defs></svg>