<svg xmlns="http://www.w3.org/2000/svg" aria-hidden="true" style="position:absolute;width:0;height:0;overflow:hidden"><defs><symbol id="icon-phone" viewBox="0 0 30 32"><path fill="currentColor" d="M29.228 23.36 25.5 19.42c-.466-.502-1.129-.815-1.865-.815s-1.399.313-1.864.813l-.001.002-1.696 1.79a1.924 1.924 0 0 1-2.823.001l-.001-.001-7.35-7.762c-.363-.39-.585-.915-.585-1.491s.223-1.101.586-1.492l-.001.001 1.694-1.79c1.024-1.08 1.04-2.84 0-3.938L7.866.814C7.4.313 6.738 0 6.002 0S4.605.312 4.141.81L4.14.812l-1.36 1.42c-3.706 3.916-3.706 10.286 0 14.2l11.644 12.296c3.716 3.924 9.732 3.924 13.448 0l1.356-1.432c.478-.515.771-1.207.771-1.968s-.293-1.453-.772-1.97l.002.002zM5.38 2.126c.344-.36.9-.36 1.244 0l3.73 3.926a.963.963 0 0 1 0 1.313l.001-.001-.622.656-4.972-5.246.62-.648zm10.286 25.29L4.026 15.118C1.154 12.09.996 7.336 3.54 4.108l4.954 5.23a4.1 4.1 0 0 0-.936 2.616c0 1.085.419 2.072 1.105 2.808l-.002-.002 7.348 7.764c1.41 1.488 3.66 1.55 5.136.172l4.956 5.232c-3.048 2.68-7.542 2.538-10.432-.512zm12.32-1.432-.622.656-4.972-5.25.62-.656c.344-.36.9-.36 1.244 0l3.73 3.938a.963.963 0 0 1 0 1.313l.001-.001z" style="fill:var(--color1, currentColor)"/></symbol><symbol id="icon-mail" viewBox="0 0 44 32"><path fill="none" stroke="#fff" stroke-width="2.462" d="m2.462 2.462 18.215 13.662c.406.307.92.492 1.477.492s1.071-.185 1.483-.497l-.006.005L41.846 2.462" style="stroke:var(--color1, currentColor)"/><path fill="none" stroke="#fff" stroke-width="2.462" d="M4.923 1.231h34.462a3.692 3.692 0 0 1 3.692 3.692v22.154a3.692 3.692 0 0 1-3.692 3.692H4.923a3.692 3.692 0 0 1-3.692-3.692V4.923a3.692 3.692 0 0 1 3.692-3.692z" style="stroke:var(--color1, currentColor)"/></symbol><symbol id="icon-location" viewBox="0 0 21 32"><path fill="#fff" d="M10.353 0C4.644 0 0 4.894 0 10.912c0 2.033.535 4.017 1.545 5.739l8.218 13.96a.854.854 0 0 0 .734.429h.006a.855.855 0 0 0 .732-.436l.002-.004 8.008-14.095a11.214 11.214 0 0 0 1.461-5.57v-.022.001C20.706 4.894 16.062 0 10.353 0zm7.413 15.571-7.283 12.813-7.471-12.691a9.35 9.35 0 0 1-1.299-4.781c0-5.015 3.885-9.105 8.64-9.105 4.757 0 8.632 4.09 8.632 9.105a9.466 9.466 0 0 1-1.22 4.659z" style="fill:var(--color1, currentColor)"/><path fill="#fff" d="M10.353 4.599a5.757 5.757 0 0 0-5.751 5.748v.008a5.74 5.74 0 0 0 5.741 5.741h.01-.001c3.253 0 5.752-2.635 5.752-5.749a5.756 5.756 0 0 0-5.752-5.749zm0 9.594a3.85 3.85 0 0 1-3.848-3.845 3.86 3.86 0 0 1 3.847-3.844h.001a3.853 3.853 0 0 1 3.84 3.844v.006a3.84 3.84 0 0 1-3.84 3.84z" style="fill:var(--color1, currentColor)"/></symbol><symbol id="icon-clock" viewBox="0 0 32 32"><path fill="none" stroke="#fff" stroke-width="2" d="M31 16c0 8.284-6.716 15-15 15S1 24.284 1 16C1 7.716 7.716 1 16 1s15 6.716 15 15z" style="stroke:var(--color1, currentColor)"/><path fill="#fff" d="M15 8a1 1 0 0 0-1 1v8a1 1 0 0 0 2 0V9a1 1 0 0 0-1-1z" style="fill:var(--color1, currentColor)"/><path fill="#fff" d="M14 17a1 1 0 0 0 1 1h6a1 1 0 0 0 0-2h-6a1 1 0 0 0-1 1z" style="fill:var(--color1, currentColor)"/></symbol></defs></svg>