<svg xmlns="http://www.w3.org/2000/svg" width="11" height="17" fill="none"><path fill="#fff" d="M5.5 0C2.467 0 0 2.6 0 5.797c0 1.08.284 2.134.821 3.049l4.366 7.416a.454.454 0 0 0 .39.228h.003a.454.454 0 0 0 .39-.234l4.254-7.488A6.029 6.029 0 0 0 11 5.798C11 2.6 8.533 0 5.5 0Zm3.938 8.272-3.869 6.807L1.6 8.337a5.02 5.02 0 0 1-.69-2.54C.91 3.133 2.974.96 5.5.96c2.527 0 4.586 2.173 4.586 4.837 0 .874-.226 1.73-.648 2.475Z"/><path fill="#fff" d="M5.5 2.443a3.058 3.058 0 0 0-3.055 3.054A3.05 3.05 0 0 0 5.5 8.551c1.728 0 3.056-1.4 3.056-3.054A3.058 3.058 0 0 0 5.5 2.443Zm0 5.097a2.045 2.045 0 0 1-2.044-2.043A2.05 2.05 0 0 1 5.5 3.455c1.123 0 2.04.92 2.04 2.042A2.04 2.04 0 0 1 5.5 7.54Z"/></svg>